<?xml version="1.0" encoding="UTF-8"?>
<svg width="15" height="16" fill="none" version="1.1" viewBox="0 0 15 16" xmlns="http://www.w3.org/2000/svg"><path d="m12.865 8.1664c0.913 0.35986 1.5145 1.24 1.5182 2.2214-0.0021 0.821-0.4242 1.5838-1.1187 2.0216 0.2079 0.3567 0.3181 0.7618 0.3196 1.1746 0.0074 0.9589-0.5572 1.8299-1.4355 2.2145-0.8784 0.3846-1.9014 0.2088-2.601-0.4469-0.69958-0.6557-0.9411-1.6653-0.61405-2.5666h-1.8858c0.36117 0.995 0.02688 2.1092-0.82242 2.7411-0.84931 0.6319-2.0125 0.6319-2.8618 0-0.84931-0.6319-1.1836-1.7461-0.82243-2.7411h-0.94289c-0.44131 0-0.79906-0.3578-0.79906-0.7991s0.35775-0.7991 0.79906-0.7991h10.388c0.4413 0 0.7991-0.3577 0.7991-0.799 0-0.44132-0.3578-0.79907-0.7991-0.79907h-8.2223c-0.37146 0.01272-0.70264-0.23235-0.79906-0.59131l-1.9817-7.3993h-0.98284v-1.5981h1.5981c0.3626-0.0015914 0.68081 0.24117 0.77509 0.5913l0.26369 1.0068h10.947c0.2419-0.00718 0.4741 0.09566 0.6313 0.27968 0.1539 0.19654 0.2071 0.4537 0.1438 0.69518l-1.4942 5.5934zm-8.4701-0.17579h6.8639l1.2865-4.7944h-9.4768l1.3264 4.7944zm0.39953 6.3925c-0.44131 0-0.79906-0.3578-0.79906-0.7991s0.35775-0.799 0.79906-0.799c0.4413 0 0.79906 0.3577 0.79906 0.799s-0.35776 0.7991-0.79906 0.7991zm5.5934-0.7991c0 0.4413 0.3577 0.7991 0.799 0.7991s0.7991-0.3578 0.7991-0.7991-0.3578-0.799-0.7991-0.799-0.799 0.3577-0.799 0.799z" clip-rule="evenodd" fill="#fff" fill-rule="evenodd"/></svg>
